# xmcd CD database file
#
# Track frame offsets:
#	150
#	53081
#	83054
#	116144
#	161070
#	206438
#	245192
#
# Disc length: 3735 seconds
#
# Revision: 0
# Processed by: cddbd v1.5.2PL0 Copyright (c) Steve Scherf et al.
# Submitted via: CDex 1.70beta2
#
DISCID=5d0e9507
DTITLE=Katachestra - Zreilo je zito
DYEAR=2006
DGENRE=Jazz
TTITLE0=Tricentu pampini (Sicila)
TTITLE1=Abballati (Sicila)
TTITLE2=Zreilo je zito (Slovenia)
TTITLE3=Da bi znalo sunce govoriti (Slovenia)
TTITLE4=Poegnala e tudora (Bulgaria)
TTITLE5=Laska (Chechia)
TTITLE6=Bonus track
EXTD=YEAR: 2006
EXTT0=
EXTT1=
EXTT2=
EXTT3=
EXTT4=
EXTT5=
EXTT6=
PLAYORDER=
